<svg fill="none" height="233" viewBox="0 0 1157 233" width="1157" xmlns="http://www.w3.org/2000/svg" xmlns:xlink="http://www.w3.org/1999/xlink"><linearGradient id="a" gradientUnits="userSpaceOnUse" x1="578.054" x2="578.054" y1=".5" y2="232.106"><stop offset=".259836" stop-color="#d9d9d9" stop-opacity="0"/><stop offset=".45799" stop-color="#d9d9d9"/></linearGradient><linearGradient id="b"><stop offset="0" stop-color="#8809fe"/><stop offset="1" stop-color="#ceceea" stop-opacity="0"/></linearGradient><linearGradient id="c" gradientUnits="userSpaceOnUse" x1="553.776" x2="552.404" xlink:href="#b" y1="-35.5426" y2="216.308"/><linearGradient id="d"><stop offset="0" stop-color="#89c0fb"/><stop offset="1" stop-color="#ceceea" stop-opacity="0"/></linearGradient><linearGradient id="e" gradientUnits="userSpaceOnUse" x1="223.491" x2="223.491" xlink:href="#d" y1="-27.3994" y2="284.972"/><linearGradient id="f"><stop offset="0" stop-color="#f8a4ff"/><stop offset="1" stop-color="#ceceea" stop-opacity="0"/></linearGradient><linearGradient id="g" gradientUnits="userSpaceOnUse" x1="-41.5086" x2="-41.5086" xlink:href="#f" y1="-18.8994" y2="293.472"/><linearGradient id="h" gradientUnits="userSpaceOnUse" x1="601.345" x2="602.717" xlink:href="#b" y1="-35.5426" y2="216.308"/><linearGradient id="i" gradientUnits="userSpaceOnUse" x1="931.63" x2="931.63" xlink:href="#d" y1="-27.3994" y2="284.972"/><linearGradient id="j" gradientUnits="userSpaceOnUse" x1="1196.63" x2="1196.63" xlink:href="#f" y1="-18.8994" y2="293.472"/><mask id="k" height="233" maskUnits="userSpaceOnUse" width="1157" x="0" y="0"><path d="m0 .5h1156.11v231.606h-1156.11z" fill="url(#a)"/></mask><g mask="url(#k)" opacity=".4" stroke-width="2"><path d="m507 12.6006s26.284 44.3695 35.5 80c11.541 44.6184 10.5 125.0004 10.5 125.0004" stroke="url(#c)"/><path d="m535 231.601-16.112-27.873c-46.347-80.174-114.049-145.9018-195.559-189.8561l-21.829-11.77131" stroke="url(#e)"/><path d="m489.5 221.601-20.707-17.677c-66.771-57-148.588-93.496-235.609-105.0989-60.506-8.0674-118.773-28.2101-171.3436-59.2321l-61.8404-36.49241" stroke="url(#g)"/><path d="m648.121 12.6006s-26.284 44.3695-35.5 80c-11.541 44.6184-10.5 125.0004-10.5 125.0004" stroke="url(#h)"/><path d="m620.121 231.601 16.112-27.873c46.347-80.174 114.049-145.9018 195.559-189.8561l21.829-11.77131" stroke="url(#i)"/><path d="m665.621 221.601 20.707-17.677c66.771-57 148.588-93.496 235.609-105.0989 60.506-8.0674 118.773-28.2101 171.343-59.2321l61.84-36.49241" stroke="url(#j)"/></g></svg>